<svg xmlns="http://www.w3.org/2000/svg" viewBox="0 0 1320 600" stroke-width="4" stroke-linejoin="round" stroke-linecap="round" font-family="sans-serif" font-size="24" font-weight="bold" text-anchor="middle" dominant-baseline="middle">
	<symbol id="web" viewBox="0 0 1320 600" fill="none" stroke="#333">
		<path d="
			M540,260
			L320,260
			L240,180
			M540,340
			L320,340
			L240,420
			M580,200
			L500,120
			L480,120
			M580,400
			L500,480
			L480,480
			M780,260
			L1000,260
			L1080,180
			M780,340
			L1000,340
			L1080,420
		"/>
	</symbol>
	<symbol id="entity" viewBox="0 0 240 240">
		<circle cx="120" cy="120" r="110" fill="#9cf"/>
		<rect x="40" y="195" width="160" height="30" rx="10" ry="10" fill="#69c"/>
	</symbol>
	<symbol id="desktop" viewBox="0 0 240 240">
		<use href="#entity" x="0" y="0"/>
		<text x="120" y="210" fill="#333">Desktop</text>
		<g stroke="#333">
			<g fill="#ccc">
				<path d="
					M140,165
					L155,180
					L85,180
					L100,165
					Z
				"/>
				<rect x="60" y="60" width="120" height="105" rx="10" ry="10"/>
			</g>
			<rect x="70" y="70" width="100" height="75" rx="5" ry="5" fill="#eee"/>
			<path d="
				M70,155
				Z
				M80,155
				Z
				M90,155
				Z
			" fill="none"/>
		</g>
	</symbol>
	<symbol id="mobile" viewBox="0 0 240 240">
		<use href="#entity" x="0" y="0"/>
		<text x="120" y="210" fill="#333">Mobile</text>
		<g stroke="#333">
			<rect x="85" y="60" width="70" height="120" rx="10" ry="10" fill="#ccc"/>
			<g fill="#eee">
				<rect x="95" y="70" width="50" height="80" rx="5" ry="5"/>
				<rect x="110" y="160" width="20" height="10" rx="5" ry="5"/>
			</g>
		</g>
	</symbol>
	<symbol id="server" viewBox="0 0 240 240">
		<use href="#entity" x="0" y="0"/>
		<text x="120" y="210" fill="#333">Server</text>
		<g stroke="#333">
			<g fill="#ccc">
				<rect x="40" y="60" width="160" height="30" rx="10" ry="10"/>
				<rect x="40" y="105" width="160" height="30" rx="10" ry="10"/>
				<rect x="40" y="150" width="160" height="30" rx="10" ry="10"/>
			</g>
			<g fill="#eee">
				<rect x="170" y="70" width="20" height="10" rx="5" ry="5"/>
				<rect x="170" y="115" width="20" height="10" rx="5" ry="5"/>
				<rect x="170" y="160" width="20" height="10" rx="5" ry="5"/>
			</g>
			<g fill="none">
				<path d="
					M50,80
					Z
					M60,80
					Z
					M70,80
					Z
				"/>
				<path d="
					M50,125
					Z
					M60,125
					Z
					M70,125
					Z
				"/>
				<path d="
					M50,170
					Z
					M60,170
					Z
					M70,170
					Z
				"/>
			</g>
		</g>
	</symbol>
	<symbol id="internet" viewBox="0 0 240 240">
		<use href="#entity" x="0" y="0"/>
		<text x="120" y="210" fill="#333">Internet</text>
		<path d="
			M70,170
			A40,40,0,0,1,90,90
			A40,40,0,0,1,170,110
			A20,20,0,0,1,170,170
			Z
		" fill="#eee" stroke="#333"/>
	</symbol>
	<use href="#web" x="0" y="0" width="1320" height="600"/>
	<use href="#desktop" x="0" y="60" width="240" height="240"/>
	<use href="#desktop" x="0" y="300" width="240" height="240"/>
	<use href="#mobile" x="240" y="0" width="240" height="240"/>
	<use href="#mobile" x="240" y="360" width="240" height="240"/>
	<use href="#server" x="1080" y="60" width="240" height="240"/>
	<use href="#server" x="1080" y="300" width="240" height="240"/>
	<use href="#internet" x="540" y="180" width="240" height="240"/>
</svg>
