<svg xmlns="http://www.w3.org/2000/svg" viewBox="0 0 1320 600" stroke-width="4" stroke-linejoin="round" stroke-linecap="round" font-family="sans-serif" font-size="24" font-weight="bold" text-anchor="middle" dominant-baseline="middle">
	<symbol id="entity" viewBox="0 0 240 240">
		<circle cx="120" cy="120" r="110" fill="#9cf"/>
		<rect x="40" y="195" width="160" height="30" rx="10" ry="10" fill="#69c"/>
	</symbol>
	<symbol id="html-logo" viewBox="0 0 200 200">
		<circle cx="100" cy="100" r="90" fill="#ffffff" stroke="#3c790a" stroke-width="20"/>
		<path d="
			M76,76
			C76,52,124,46,122,72
			C122,90,90,98,90,118
			V132
			H110
			V124
			C110,106,144,100,144,70
			C140,26,54,26,54,76
			Z
			M90,140
			H110
			V160
			H90
			Z
		" fill="#3c790a"/>
	</symbol>
	<symbol id="css-logo" viewBox="0 0 200 200">
		<g fill="#000000">
			<rect x="8" y="8" width="64" height="64"/>
			<rect x="8" y="72" width="128" height="64"/>
			<rect x="8" y="136" width="192" height="64"/>
		</g>
		<g fill="#99cccc">
			<rect x="0" y="0" width="64" height="64"/>
			<rect x="64" y="64" width="64" height="64"/>
			<rect x="128" y="128" width="64" height="64"/>
		</g>
		<g fill="#669999">
			<rect x="0" y="64" width="64" height="64"/>
			<rect x="64" y="128" width="64" height="64"/>
		</g>
		<rect x="0" y="128" width="64" height="64" fill="#333300"/>
	</symbol>
	<symbol id="js-logo" viewBox="0 0 200 200">
		<rect x="0" y="0" width="200" height="200" fill="#f3df49"/>
		<path d="
			M68,158
			C71,163,74,168,80,168
			C86,168,90,165,90,156
			V92
			H109
			V156
			C109,175,97,184,81,184
			C66,184,57,177,53,167
			Z
			M134,156
			C138,163,144,168,153,168
			C161,168,166,164,166,158
			C166,152,161,150,152,146
			L147,144
			C134,138,125,131,125,116
			C125,101,135,91,152,91
			C164,91,173,95,179,106
			L164,115
			C161,109,158,107,152,107
			C147,107,143,111,143,115
			C143,121,147,123,155,127
			L159,129
			C175,135,184,142,184,158
			C184,175,171,184,153,184
			C136,184,125,176,119,165
			Z
		" fill="#2e2e2c"/>
	</symbol>
	<symbol id="wasm-logo" viewBox="0 0 200 200">
		<path d="
			M123,0
			V1
			A23,23,0,0,1,77,1
			V0
			H0
			V200
			H200
			V0
			Z
		" fill="#654ff0"/>
		<path d="
			M109,179
			H95
			L86,130
			H85
			L75,179
			H62
			L46,108
			H60
			L69,156
			H69
			L80,108
			H92
			L102,157
			H102
			L113,108
			H126
			Z
			M182,179
			H168
			L164,163
			H140
			L137,179
			H123
			L140,108
			H161
			Z
			M154,125
			H148
			L143,151
			H161
			Z
		" fill="#ffffff"/>
	</symbol>
	<symbol id="html" viewBox="0 0 240 240">
		<use href="#entity" x="0" y="0"/>
		<text x="120" y="210" fill="#333">HTML</text>
		<use href="#html-logo" x="60" y="60" width="120" height="120"/>
	</symbol>
	<symbol id="css" viewBox="0 0 240 240">
		<use href="#entity" x="0" y="0"/>
		<text x="120" y="210" fill="#333">CSS</text>
		<use href="#css-logo" x="60" y="60" width="120" height="120"/>
	</symbol>
	<symbol id="js" viewBox="0 0 240 240">
		<use href="#entity" x="0" y="0"/>
		<text x="120" y="210" fill="#333">JS</text>
		<use href="#js-logo" x="60" y="60" width="120" height="120"/>
	</symbol>
	<symbol id="wasm" viewBox="0 0 240 240">
		<use href="#entity" x="0" y="0"/>
		<text x="120" y="210" fill="#333">WASM</text>
		<use href="#wasm-logo" x="60" y="60" width="120" height="120"/>
	</symbol>
	<use href="#html" x="560" y="240" width="240" height="240"/>
	<use href="#css" x="560" y="0" width="240" height="240"/>
	<use href="#js" x="340" y="360" width="240" height="240"/>
	<use href="#wasm" x="780" y="360" width="240" height="240"/>
</svg>
