<svg xmlns="http://www.w3.org/2000/svg" viewBox="-59.5 0 990 391">
	<defs>
		<filter height="300%" id="filter" width="300%" x="-1" y="-1">
			<feGaussianBlur result="blurOut" stdDeviation="2.0"/>
			<feColorMatrix in="blurOut" result="blurOut2" type="matrix" values="0 0 0 0 0 0 0 0 0 0 0 0 0 0 0 0 0 0 .4 0"/>
			<feOffset dx="4.0" dy="4.0" in="blurOut2" result="blurOut3"/>
			<feBlend in="SourceGraphic" in2="blurOut3" mode="normal"/>
		</filter>
	</defs>
	<g>
		<rect fill="#FEFECE" filter="url(#filter)" height="48" stroke="#A80036" stroke-width="1.5" width="65" x="529.5" y="116"/>
		<ellipse cx="544.5" cy="132" fill="#ADD1B2" rx="11" ry="11" stroke="#A80036" stroke-width="1.0"/>
		<path d="M546.8438,127.6719 L547.0156,127.75 C547.2344,127.4375 547.4375,127.3438 547.7344,127.3438 C548.0313,127.3438 548.3125,127.4844 548.4688,127.75 C548.5625,127.9063 548.5781,128.0313 548.5781,128.4688 L548.5781,129.8906 C548.5781,130.3125 548.5469,130.5 548.4375,130.6563 C548.2656,130.875 548,131.0156 547.7344,131.0156 C547.5156,131.0156 547.2813,130.9063 547.1406,130.7656 C547,130.6406 546.9688,130.5156 546.9063,130.1094 C546.8125,129.7031 546.6406,129.4844 546.1563,129.2031 C545.6875,128.9531 545.0781,128.7969 544.5,128.7969 C542.7656,128.7969 541.5156,130.1094 541.5156,131.8906 L541.5156,132.9844 C541.5156,134.6875 542.8125,135.7813 544.8594,135.7813 C545.625,135.7813 546.3125,135.6563 546.7344,135.3906 C546.9219,135.2969 546.9219,135.2969 547.375,134.8125 C547.5625,134.625 547.7656,134.5469 547.9844,134.5469 C548.4531,134.5469 548.8438,134.9375 548.8438,135.3906 C548.8438,135.7813 548.5156,136.2344 547.9375,136.6406 C547.1875,137.1875 546.0313,137.4844 544.8125,137.4844 C541.9219,137.4844 539.8125,135.5938 539.8125,133.0156 L539.8125,131.8906 C539.8125,129.1719 541.8125,127.0938 544.4375,127.0938 C545.3125,127.0938 545.9063,127.2344 546.8438,127.6719 Z"/>
		<text fill="#000000" font-family="sans-serif" font-size="12" lengthAdjust="spacingAndGlyphs" textLength="33" x="558.5" y="136.1543">Node</text>
		<line stroke="#A80036" stroke-width="1.5" x1="530.5" x2="593.5" y1="148" y2="148"/>
		<line stroke="#A80036" stroke-width="1.5" x1="530.5" x2="593.5" y1="156" y2="156"/>
		<rect fill="#FEFECE" filter="url(#filter)" height="48" stroke="#A80036" stroke-width="1.5" width="108" x="508" y="8"/>
		<ellipse cx="523" cy="24" fill="#ADD1B2" rx="11" ry="11" stroke="#A80036" stroke-width="1.0"/>
		<path d="M525.3438,19.6719 L525.5156,19.75 C525.7344,19.4375 525.9375,19.3438 526.2344,19.3438 C526.5313,19.3438 526.8125,19.4844 526.9688,19.75 C527.0625,19.9063 527.0781,20.0313 527.0781,20.4688 L527.0781,21.8906 C527.0781,22.3125 527.0469,22.5 526.9375,22.6563 C526.7656,22.875 526.5,23.0156 526.2344,23.0156 C526.0156,23.0156 525.7813,22.9063 525.6406,22.7656 C525.5,22.6406 525.4688,22.5156 525.4063,22.1094 C525.3125,21.7031 525.1406,21.4844 524.6563,21.2031 C524.1875,20.9531 523.5781,20.7969 523,20.7969 C521.2656,20.7969 520.0156,22.1094 520.0156,23.8906 L520.0156,24.9844 C520.0156,26.6875 521.3125,27.7813 523.3594,27.7813 C524.125,27.7813 524.8125,27.6563 525.2344,27.3906 C525.4219,27.2969 525.4219,27.2969 525.875,26.8125 C526.0625,26.625 526.2656,26.5469 526.4844,26.5469 C526.9531,26.5469 527.3438,26.9375 527.3438,27.3906 C527.3438,27.7813 527.0156,28.2344 526.4375,28.6406 C525.6875,29.1875 524.5313,29.4844 523.3125,29.4844 C520.4219,29.4844 518.3125,27.5938 518.3125,25.0156 L518.3125,23.8906 C518.3125,21.1719 520.3125,19.0938 522.9375,19.0938 C523.8125,19.0938 524.4063,19.2344 525.3438,19.6719 Z"/>
		<text fill="#000000" font-family="sans-serif" font-size="12" lengthAdjust="spacingAndGlyphs" textLength="76" x="537" y="28.1543">EventTarget</text>
		<line stroke="#A80036" stroke-width="1.5" x1="509" x2="615" y1="40" y2="40"/>
		<line stroke="#A80036" stroke-width="1.5" x1="509" x2="615" y1="48" y2="48"/>
		<rect fill="#FEFECE" filter="url(#filter)" height="48" stroke="#A80036" stroke-width="1.5" width="96" x="514" y="224"/>
		<ellipse cx="529" cy="240" fill="#ADD1B2" rx="11" ry="11" stroke="#A80036" stroke-width="1.0"/>
		<path d="M531.3438,235.6719 L531.5156,235.75 C531.7344,235.4375 531.9375,235.3438 532.2344,235.3438 C532.5313,235.3438 532.8125,235.4844 532.9688,235.75 C533.0625,235.9063 533.0781,236.0313 533.0781,236.4688 L533.0781,237.8906 C533.0781,238.3125 533.0469,238.5 532.9375,238.6563 C532.7656,238.875 532.5,239.0156 532.2344,239.0156 C532.0156,239.0156 531.7813,238.9063 531.6406,238.7656 C531.5,238.6406 531.4688,238.5156 531.4063,238.1094 C531.3125,237.7031 531.1406,237.4844 530.6563,237.2031 C530.1875,236.9531 529.5781,236.7969 529,236.7969 C527.2656,236.7969 526.0156,238.1094 526.0156,239.8906 L526.0156,240.9844 C526.0156,242.6875 527.3125,243.7813 529.3594,243.7813 C530.125,243.7813 530.8125,243.6563 531.2344,243.3906 C531.4219,243.2969 531.4219,243.2969 531.875,242.8125 C532.0625,242.625 532.2656,242.5469 532.4844,242.5469 C532.9531,242.5469 533.3438,242.9375 533.3438,243.3906 C533.3438,243.7813 533.0156,244.2344 532.4375,244.6406 C531.6875,245.1875 530.5313,245.4844 529.3125,245.4844 C526.4219,245.4844 524.3125,243.5938 524.3125,241.0156 L524.3125,239.8906 C524.3125,237.1719 526.3125,235.0938 528.9375,235.0938 C529.8125,235.0938 530.4063,235.2344 531.3438,235.6719 Z"/>
		<text fill="#000000" font-family="sans-serif" font-size="12" lengthAdjust="spacingAndGlyphs" textLength="64" x="543" y="244.1543">Document</text>
		<line stroke="#A80036" stroke-width="1.5" x1="515" x2="609" y1="256" y2="256"/>
		<line stroke="#A80036" stroke-width="1.5" x1="515" x2="609" y1="264" y2="264"/>
		<rect fill="#FEFECE" filter="url(#filter)" height="48" stroke="#A80036" stroke-width="1.5" width="125" x="645.5" y="224"/>
		<ellipse cx="660.5" cy="240" fill="#ADD1B2" rx="11" ry="11" stroke="#A80036" stroke-width="1.0"/>
		<path d="M662.8438,235.6719 L663.0156,235.75 C663.2344,235.4375 663.4375,235.3438 663.7344,235.3438 C664.0313,235.3438 664.3125,235.4844 664.4688,235.75 C664.5625,235.9063 664.5781,236.0313 664.5781,236.4688 L664.5781,237.8906 C664.5781,238.3125 664.5469,238.5 664.4375,238.6563 C664.2656,238.875 664,239.0156 663.7344,239.0156 C663.5156,239.0156 663.2813,238.9063 663.1406,238.7656 C663,238.6406 662.9688,238.5156 662.9063,238.1094 C662.8125,237.7031 662.6406,237.4844 662.1563,237.2031 C661.6875,236.9531 661.0781,236.7969 660.5,236.7969 C658.7656,236.7969 657.5156,238.1094 657.5156,239.8906 L657.5156,240.9844 C657.5156,242.6875 658.8125,243.7813 660.8594,243.7813 C661.625,243.7813 662.3125,243.6563 662.7344,243.3906 C662.9219,243.2969 662.9219,243.2969 663.375,242.8125 C663.5625,242.625 663.7656,242.5469 663.9844,242.5469 C664.4531,242.5469 664.8438,242.9375 664.8438,243.3906 C664.8438,243.7813 664.5156,244.2344 663.9375,244.6406 C663.1875,245.1875 662.0313,245.4844 660.8125,245.4844 C657.9219,245.4844 655.8125,243.5938 655.8125,241.0156 L655.8125,239.8906 C655.8125,237.1719 657.8125,235.0938 660.4375,235.0938 C661.3125,235.0938 661.9063,235.2344 662.8438,235.6719 Z"/>
		<text fill="#000000" font-family="sans-serif" font-size="12" lengthAdjust="spacingAndGlyphs" textLength="93" x="674.5" y="244.1543">DocumentType</text>
		<line stroke="#A80036" stroke-width="1.5" x1="646.5" x2="769.5" y1="256" y2="256"/>
		<line stroke="#A80036" stroke-width="1.5" x1="646.5" x2="769.5" y1="264" y2="264"/>
		<rect fill="#FEFECE" filter="url(#filter)" height="48" stroke="#A80036" stroke-width="1.5" width="83" x="395.5" y="224"/>
		<ellipse cx="410.5" cy="240" fill="#ADD1B2" rx="11" ry="11" stroke="#A80036" stroke-width="1.0"/>
		<path d="M412.8438,235.6719 L413.0156,235.75 C413.2344,235.4375 413.4375,235.3438 413.7344,235.3438 C414.0313,235.3438 414.3125,235.4844 414.4688,235.75 C414.5625,235.9063 414.5781,236.0313 414.5781,236.4688 L414.5781,237.8906 C414.5781,238.3125 414.5469,238.5 414.4375,238.6563 C414.2656,238.875 414,239.0156 413.7344,239.0156 C413.5156,239.0156 413.2813,238.9063 413.1406,238.7656 C413,238.6406 412.9688,238.5156 412.9063,238.1094 C412.8125,237.7031 412.6406,237.4844 412.1563,237.2031 C411.6875,236.9531 411.0781,236.7969 410.5,236.7969 C408.7656,236.7969 407.5156,238.1094 407.5156,239.8906 L407.5156,240.9844 C407.5156,242.6875 408.8125,243.7813 410.8594,243.7813 C411.625,243.7813 412.3125,243.6563 412.7344,243.3906 C412.9219,243.2969 412.9219,243.2969 413.375,242.8125 C413.5625,242.625 413.7656,242.5469 413.9844,242.5469 C414.4531,242.5469 414.8438,242.9375 414.8438,243.3906 C414.8438,243.7813 414.5156,244.2344 413.9375,244.6406 C413.1875,245.1875 412.0313,245.4844 410.8125,245.4844 C407.9219,245.4844 405.8125,243.5938 405.8125,241.0156 L405.8125,239.8906 C405.8125,237.1719 407.8125,235.0938 410.4375,235.0938 C411.3125,235.0938 411.9063,235.2344 412.8438,235.6719 Z"/>
		<text fill="#000000" font-family="sans-serif" font-size="12" lengthAdjust="spacingAndGlyphs" textLength="51" x="424.5" y="244.1543">Element</text>
		<line stroke="#A80036" stroke-width="1.5" x1="396.5" x2="477.5" y1="256" y2="256"/>
		<line stroke="#A80036" stroke-width="1.5" x1="396.5" x2="477.5" y1="264" y2="264"/>
		<rect fill="#FEFECE" filter="url(#filter)" height="48" stroke="#A80036" stroke-width="1.5" width="115" x="379.5" y="332"/>
		<ellipse cx="394.5" cy="348" fill="#ADD1B2" rx="11" ry="11" stroke="#A80036" stroke-width="1.0"/>
		<path d="M396.8438,343.6719 L397.0156,343.75 C397.2344,343.4375 397.4375,343.3438 397.7344,343.3438 C398.0313,343.3438 398.3125,343.4844 398.4688,343.75 C398.5625,343.9063 398.5781,344.0313 398.5781,344.4688 L398.5781,345.8906 C398.5781,346.3125 398.5469,346.5 398.4375,346.6563 C398.2656,346.875 398,347.0156 397.7344,347.0156 C397.5156,347.0156 397.2813,346.9063 397.1406,346.7656 C397,346.6406 396.9688,346.5156 396.9063,346.1094 C396.8125,345.7031 396.6406,345.4844 396.1563,345.2031 C395.6875,344.9531 395.0781,344.7969 394.5,344.7969 C392.7656,344.7969 391.5156,346.1094 391.5156,347.8906 L391.5156,348.9844 C391.5156,350.6875 392.8125,351.7813 394.8594,351.7813 C395.625,351.7813 396.3125,351.6563 396.7344,351.3906 C396.9219,351.2969 396.9219,351.2969 397.375,350.8125 C397.5625,350.625 397.7656,350.5469 397.9844,350.5469 C398.4531,350.5469 398.8438,350.9375 398.8438,351.3906 C398.8438,351.7813 398.5156,352.2344 397.9375,352.6406 C397.1875,353.1875 396.0313,353.4844 394.8125,353.4844 C391.9219,353.4844 389.8125,351.5938 389.8125,349.0156 L389.8125,347.8906 C389.8125,345.1719 391.8125,343.0938 394.4375,343.0938 C395.3125,343.0938 395.9063,343.2344 396.8438,343.6719 Z"/>
		<text fill="#000000" font-family="sans-serif" font-size="12" lengthAdjust="spacingAndGlyphs" textLength="83" x="408.5" y="352.1543">HTMLElement</text>
		<line stroke="#A80036" stroke-width="1.5" x1="380.5" x2="493.5" y1="364" y2="364"/>
		<line stroke="#A80036" stroke-width="1.5" x1="380.5" x2="493.5" y1="372" y2="372"/>
		<rect fill="#FEFECE" filter="url(#filter)" height="48" stroke="#A80036" stroke-width="1.5" width="108" x="530" y="332"/>
		<ellipse cx="545" cy="348" fill="#ADD1B2" rx="11" ry="11" stroke="#A80036" stroke-width="1.0"/>
		<path d="M547.3438,343.6719 L547.5156,343.75 C547.7344,343.4375 547.9375,343.3438 548.2344,343.3438 C548.5313,343.3438 548.8125,343.4844 548.9688,343.75 C549.0625,343.9063 549.0781,344.0313 549.0781,344.4688 L549.0781,345.8906 C549.0781,346.3125 549.0469,346.5 548.9375,346.6563 C548.7656,346.875 548.5,347.0156 548.2344,347.0156 C548.0156,347.0156 547.7813,346.9063 547.6406,346.7656 C547.5,346.6406 547.4688,346.5156 547.4063,346.1094 C547.3125,345.7031 547.1406,345.4844 546.6563,345.2031 C546.1875,344.9531 545.5781,344.7969 545,344.7969 C543.2656,344.7969 542.0156,346.1094 542.0156,347.8906 L542.0156,348.9844 C542.0156,350.6875 543.3125,351.7813 545.3594,351.7813 C546.125,351.7813 546.8125,351.6563 547.2344,351.3906 C547.4219,351.2969 547.4219,351.2969 547.875,350.8125 C548.0625,350.625 548.2656,350.5469 548.4844,350.5469 C548.9531,350.5469 549.3438,350.9375 549.3438,351.3906 C549.3438,351.7813 549.0156,352.2344 548.4375,352.6406 C547.6875,353.1875 546.5313,353.4844 545.3125,353.4844 C542.4219,353.4844 540.3125,351.5938 540.3125,349.0156 L540.3125,347.8906 C540.3125,345.1719 542.3125,343.0938 544.9375,343.0938 C545.8125,343.0938 546.4063,343.2344 547.3438,343.6719 Z"/>
		<text fill="#000000" font-family="sans-serif" font-size="12" lengthAdjust="spacingAndGlyphs" textLength="76" x="559" y="352.1543">SVGElement</text>
		<line stroke="#A80036" stroke-width="1.5" x1="531" x2="637" y1="364" y2="364"/>
		<line stroke="#A80036" stroke-width="1.5" x1="531" x2="637" y1="372" y2="372"/>
		<rect fill="#FEFECE" filter="url(#filter)" height="48" stroke="#A80036" stroke-width="1.5" width="55" x="805.5" y="224"/>
		<ellipse cx="820.5" cy="240" fill="#ADD1B2" rx="11" ry="11" stroke="#A80036" stroke-width="1.0"/>
		<path d="M822.8438,235.6719 L823.0156,235.75 C823.2344,235.4375 823.4375,235.3438 823.7344,235.3438 C824.0313,235.3438 824.3125,235.4844 824.4688,235.75 C824.5625,235.9063 824.5781,236.0313 824.5781,236.4688 L824.5781,237.8906 C824.5781,238.3125 824.5469,238.5 824.4375,238.6563 C824.2656,238.875 824,239.0156 823.7344,239.0156 C823.5156,239.0156 823.2813,238.9063 823.1406,238.7656 C823,238.6406 822.9688,238.5156 822.9063,238.1094 C822.8125,237.7031 822.6406,237.4844 822.1563,237.2031 C821.6875,236.9531 821.0781,236.7969 820.5,236.7969 C818.7656,236.7969 817.5156,238.1094 817.5156,239.8906 L817.5156,240.9844 C817.5156,242.6875 818.8125,243.7813 820.8594,243.7813 C821.625,243.7813 822.3125,243.6563 822.7344,243.3906 C822.9219,243.2969 822.9219,243.2969 823.375,242.8125 C823.5625,242.625 823.7656,242.5469 823.9844,242.5469 C824.4531,242.5469 824.8438,242.9375 824.8438,243.3906 C824.8438,243.7813 824.5156,244.2344 823.9375,244.6406 C823.1875,245.1875 822.0313,245.4844 820.8125,245.4844 C817.9219,245.4844 815.8125,243.5938 815.8125,241.0156 L815.8125,239.8906 C815.8125,237.1719 817.8125,235.0938 820.4375,235.0938 C821.3125,235.0938 821.9063,235.2344 822.8438,235.6719 Z"/>
		<text fill="#000000" font-family="sans-serif" font-size="12" lengthAdjust="spacingAndGlyphs" textLength="23" x="834.5" y="244.1543">Attr</text>
		<line stroke="#A80036" stroke-width="1.5" x1="806.5" x2="859.5" y1="256" y2="256"/>
		<line stroke="#A80036" stroke-width="1.5" x1="806.5" x2="859.5" y1="264" y2="264"/>
		<rect fill="#FEFECE" filter="url(#filter)" height="48" stroke="#A80036" stroke-width="1.5" width="124" x="153" y="224"/>
		<ellipse cx="168" cy="240" fill="#ADD1B2" rx="11" ry="11" stroke="#A80036" stroke-width="1.0"/>
		<path d="M170.3438,235.6719 L170.5156,235.75 C170.7344,235.4375 170.9375,235.3438 171.2344,235.3438 C171.5313,235.3438 171.8125,235.4844 171.9688,235.75 C172.0625,235.9063 172.0781,236.0313 172.0781,236.4688 L172.0781,237.8906 C172.0781,238.3125 172.0469,238.5 171.9375,238.6563 C171.7656,238.875 171.5,239.0156 171.2344,239.0156 C171.0156,239.0156 170.7813,238.9063 170.6406,238.7656 C170.5,238.6406 170.4688,238.5156 170.4063,238.1094 C170.3125,237.7031 170.1406,237.4844 169.6563,237.2031 C169.1875,236.9531 168.5781,236.7969 168,236.7969 C166.2656,236.7969 165.0156,238.1094 165.0156,239.8906 L165.0156,240.9844 C165.0156,242.6875 166.3125,243.7813 168.3594,243.7813 C169.125,243.7813 169.8125,243.6563 170.2344,243.3906 C170.4219,243.2969 170.4219,243.2969 170.875,242.8125 C171.0625,242.625 171.2656,242.5469 171.4844,242.5469 C171.9531,242.5469 172.3438,242.9375 172.3438,243.3906 C172.3438,243.7813 172.0156,244.2344 171.4375,244.6406 C170.6875,245.1875 169.5313,245.4844 168.3125,245.4844 C165.4219,245.4844 163.3125,243.5938 163.3125,241.0156 L163.3125,239.8906 C163.3125,237.1719 165.3125,235.0938 167.9375,235.0938 C168.8125,235.0938 169.4063,235.2344 170.3438,235.6719 Z"/>
		<text fill="#000000" font-family="sans-serif" font-size="12" lengthAdjust="spacingAndGlyphs" textLength="92" x="182" y="244.1543">CharacterData</text>
		<line stroke="#A80036" stroke-width="1.5" x1="154" x2="276" y1="256" y2="256"/>
		<line stroke="#A80036" stroke-width="1.5" x1="154" x2="276" y1="264" y2="264"/>
		<rect fill="#FEFECE" filter="url(#filter)" height="48" stroke="#A80036" stroke-width="1.5" width="58" x="6" y="332"/>
		<ellipse cx="21" cy="348" fill="#ADD1B2" rx="11" ry="11" stroke="#A80036" stroke-width="1.0"/>
		<path d="M23.3438,343.6719 L23.5156,343.75 C23.7344,343.4375 23.9375,343.3438 24.2344,343.3438 C24.5313,343.3438 24.8125,343.4844 24.9688,343.75 C25.0625,343.9063 25.0781,344.0313 25.0781,344.4688 L25.0781,345.8906 C25.0781,346.3125 25.0469,346.5 24.9375,346.6563 C24.7656,346.875 24.5,347.0156 24.2344,347.0156 C24.0156,347.0156 23.7813,346.9063 23.6406,346.7656 C23.5,346.6406 23.4688,346.5156 23.4063,346.1094 C23.3125,345.7031 23.1406,345.4844 22.6563,345.2031 C22.1875,344.9531 21.5781,344.7969 21,344.7969 C19.2656,344.7969 18.0156,346.1094 18.0156,347.8906 L18.0156,348.9844 C18.0156,350.6875 19.3125,351.7813 21.3594,351.7813 C22.125,351.7813 22.8125,351.6563 23.2344,351.3906 C23.4219,351.2969 23.4219,351.2969 23.875,350.8125 C24.0625,350.625 24.2656,350.5469 24.4844,350.5469 C24.9531,350.5469 25.3438,350.9375 25.3438,351.3906 C25.3438,351.7813 25.0156,352.2344 24.4375,352.6406 C23.6875,353.1875 22.5313,353.4844 21.3125,353.4844 C18.4219,353.4844 16.3125,351.5938 16.3125,349.0156 L16.3125,347.8906 C16.3125,345.1719 18.3125,343.0938 20.9375,343.0938 C21.8125,343.0938 22.4063,343.2344 23.3438,343.6719 Z"/>
		<text fill="#000000" font-family="sans-serif" font-size="12" lengthAdjust="spacingAndGlyphs" textLength="26" x="35" y="352.1543">Text</text>
		<line stroke="#A80036" stroke-width="1.5" x1="7" x2="63" y1="364" y2="364"/>
		<line stroke="#A80036" stroke-width="1.5" x1="7" x2="63" y1="372" y2="372"/>
		<rect fill="#FEFECE" filter="url(#filter)" height="48" stroke="#A80036" stroke-width="1.5" width="91" x="99.5" y="332"/>
		<ellipse cx="114.5" cy="348" fill="#ADD1B2" rx="11" ry="11" stroke="#A80036" stroke-width="1.0"/>
		<path d="M116.8438,343.6719 L117.0156,343.75 C117.2344,343.4375 117.4375,343.3438 117.7344,343.3438 C118.0313,343.3438 118.3125,343.4844 118.4688,343.75 C118.5625,343.9063 118.5781,344.0313 118.5781,344.4688 L118.5781,345.8906 C118.5781,346.3125 118.5469,346.5 118.4375,346.6563 C118.2656,346.875 118,347.0156 117.7344,347.0156 C117.5156,347.0156 117.2813,346.9063 117.1406,346.7656 C117,346.6406 116.9688,346.5156 116.9063,346.1094 C116.8125,345.7031 116.6406,345.4844 116.1563,345.2031 C115.6875,344.9531 115.0781,344.7969 114.5,344.7969 C112.7656,344.7969 111.5156,346.1094 111.5156,347.8906 L111.5156,348.9844 C111.5156,350.6875 112.8125,351.7813 114.8594,351.7813 C115.625,351.7813 116.3125,351.6563 116.7344,351.3906 C116.9219,351.2969 116.9219,351.2969 117.375,350.8125 C117.5625,350.625 117.7656,350.5469 117.9844,350.5469 C118.4531,350.5469 118.8438,350.9375 118.8438,351.3906 C118.8438,351.7813 118.5156,352.2344 117.9375,352.6406 C117.1875,353.1875 116.0313,353.4844 114.8125,353.4844 C111.9219,353.4844 109.8125,351.5938 109.8125,349.0156 L109.8125,347.8906 C109.8125,345.1719 111.8125,343.0938 114.4375,343.0938 C115.3125,343.0938 115.9063,343.2344 116.8438,343.6719 Z"/>
		<text fill="#000000" font-family="sans-serif" font-size="12" lengthAdjust="spacingAndGlyphs" textLength="59" x="128.5" y="352.1543">Comment</text>
		<line stroke="#A80036" stroke-width="1.5" x1="100.5" x2="189.5" y1="364" y2="364"/>
		<line stroke="#A80036" stroke-width="1.5" x1="100.5" x2="189.5" y1="372" y2="372"/>
		<rect fill="#FEFECE" filter="url(#filter)" height="48" stroke="#A80036" stroke-width="1.5" width="119" x="225.5" y="332"/>
		<ellipse cx="240.5" cy="348" fill="#ADD1B2" rx="11" ry="11" stroke="#A80036" stroke-width="1.0"/>
		<path d="M242.8438,343.6719 L243.0156,343.75 C243.2344,343.4375 243.4375,343.3438 243.7344,343.3438 C244.0313,343.3438 244.3125,343.4844 244.4688,343.75 C244.5625,343.9063 244.5781,344.0313 244.5781,344.4688 L244.5781,345.8906 C244.5781,346.3125 244.5469,346.5 244.4375,346.6563 C244.2656,346.875 244,347.0156 243.7344,347.0156 C243.5156,347.0156 243.2813,346.9063 243.1406,346.7656 C243,346.6406 242.9688,346.5156 242.9063,346.1094 C242.8125,345.7031 242.6406,345.4844 242.1563,345.2031 C241.6875,344.9531 241.0781,344.7969 240.5,344.7969 C238.7656,344.7969 237.5156,346.1094 237.5156,347.8906 L237.5156,348.9844 C237.5156,350.6875 238.8125,351.7813 240.8594,351.7813 C241.625,351.7813 242.3125,351.6563 242.7344,351.3906 C242.9219,351.2969 242.9219,351.2969 243.375,350.8125 C243.5625,350.625 243.7656,350.5469 243.9844,350.5469 C244.4531,350.5469 244.8438,350.9375 244.8438,351.3906 C244.8438,351.7813 244.5156,352.2344 243.9375,352.6406 C243.1875,353.1875 242.0313,353.4844 240.8125,353.4844 C237.9219,353.4844 235.8125,351.5938 235.8125,349.0156 L235.8125,347.8906 C235.8125,345.1719 237.8125,343.0938 240.4375,343.0938 C241.3125,343.0938 241.9063,343.2344 242.8438,343.6719 Z"/>
		<text fill="#000000" font-family="sans-serif" font-size="12" lengthAdjust="spacingAndGlyphs" textLength="87" x="254.5" y="352.1543">CDATASection</text>
		<line stroke="#A80036" stroke-width="1.5" x1="226.5" x2="343.5" y1="364" y2="364"/>
		<line stroke="#A80036" stroke-width="1.5" x1="226.5" x2="343.5" y1="372" y2="372"/>
		<path d="M562,76.024 C562,89.579 562,104.038 562,115.678" fill="none" stroke="#A80036" stroke-width="1.0"/>
		<polygon fill="none" points="555,76,562,56,569,76,555,76" stroke="#A80036" stroke-width="1.0"/>
		<path d="M562,184.024 C562,197.579 562,212.038 562,223.678" fill="none" stroke="#A80036" stroke-width="1.0"/>
		<polygon fill="none" points="555,184,562,164,569,184,555,184" stroke="#A80036" stroke-width="1.0"/>
		<path d="M610.178,175.979 C631.85,191.713 656.836,209.853 676.13,223.862" fill="none" stroke="#A80036" stroke-width="1.0"/>
		<polygon fill="none" points="605.752,181.415,593.68,164,613.977,170.086,605.752,181.415" stroke="#A80036" stroke-width="1.0"/>
		<path d="M519.425,177.104 C501.265,192.503 480.598,210.029 464.502,223.678" fill="none" stroke="#A80036" stroke-width="1.0"/>
		<polygon fill="none" points="515.096,171.597,534.877,164,524.15,182.275,515.096,171.597" stroke="#A80036" stroke-width="1.0"/>
		<path d="M437,292.0236 C437,305.5792 437,320.0381 437,331.6784" fill="none" stroke="#A80036" stroke-width="1.0"/>
		<polygon fill="none" points="430,292.0005,437,272,444,292.0004,430,292.0005" stroke="#A80036" stroke-width="1.0"/>
		<path d="M485.184,283.7451 C507.079,299.5335 532.389,317.7838 551.912,331.8617" fill="none" stroke="#A80036" stroke-width="1.0"/>
		<polygon fill="none" points="481.025,289.376,468.897,272,489.213,278.02,481.025,289.376" stroke="#A80036" stroke-width="1.0"/>
		<path d="M613.888,158.063 C660.153,173.745 729.418,198.383 788,224 C793.627,226.461 799.542,229.295 805.165,232.115" fill="none" stroke="#A80036" stroke-width="1.0"/>
		<polygon fill="none" points="611.405,164.613,594.67,151.615,615.858,151.34,611.405,164.613" stroke="#A80036" stroke-width="1.0"/>
		<path d="M509.966,156.895 C447.723,175.909 343.623,207.709 277.195,228.001" fill="none" stroke="#A80036" stroke-width="1.0"/>
		<polygon fill="none" points="508.183,150.121,529.355,150.972,512.273,163.51,508.183,150.121" stroke="#A80036" stroke-width="1.0"/>
		<path d="M158.401,282.3303 C127.143,300.7378 89.6213,322.8341 64.2219,337.7915" fill="none" stroke="#A80036" stroke-width="1.0"/>
		<polygon fill="none" points="155.157,276.117,175.943,272,162.261,288.1811,155.157,276.117" stroke="#A80036" stroke-width="1.0"/>
		<path d="M188.496,289.134 C179.01,303.4992 168.637,319.2066 160.401,331.6784" fill="none" stroke="#A80036" stroke-width="1.0"/>
		<polygon fill="none" points="182.949,284.8323,199.811,272,194.631,292.5472,182.949,284.8323" stroke="#A80036" stroke-width="1.0"/>
		<path d="M241.504,289.134 C250.99,303.4992 261.363,319.2066 269.599,331.6784" fill="none" stroke="#A80036" stroke-width="1.0"/>
		<polygon fill="none" points="235.369,292.5472,230.189,272,247.051,284.8323,235.369,292.5472" stroke="#A80036" stroke-width="1.0"/>
	</g>
</svg>
