<?xml version="1.0" standalone="no"?>
<svg viewBox="0 0 1440 600" xmlns="http://www.w3.org/2000/svg">
	<title>Connexion de clients et de serveurs à travers l'Internet</title>
	<style>
		text {
			font-family: sans-serif;
			font-size: 20px;
			font-weight: bold;
		}
	</style>
	<symbol id="entity" width="240" height="240" stroke="transparent" stroke-width="0">
		<circle cx="120" cy="120" r="110" fill="#9cf"/>
		<rect x="40" y="195" width="160" height="30" rx="10" ry="10" fill="#69c"/>
	</symbol>
	<symbol id="desktop" width="240" height="240" stroke="#333" stroke-width="4" stroke-linejoin="round" stroke-linecap="round">
		<use href="#entity" x="0" y="0"/>
		<text x="120" y="210" text-anchor="middle" dominant-baseline="middle" fill="#333" stroke="transparent">Desktop</text>
		<path d="
			M140,165
			L155,180
			L85,180
			L100,165
			Z
		" fill="#ccc"/>
		<rect x="60" y="60" width="120" height="105" fill="#ccc" rx="10" ry="10"/>
		<rect x="70" y="70" width="100" height="75" fill="#eee" rx="5" ry="5"/>
		<path d="
			M70,155
			Z
			M80,155
			Z
			M90,155
			Z
		" fill="transparent"/>
	</symbol>
	<symbol id="mobile" width="240" height="240" stroke="#333" stroke-width="4" stroke-linejoin="round" stroke-linecap="round">
		<use href="#entity" x="0" y="0"/>
		<text x="120" y="210" text-anchor="middle" dominant-baseline="middle" fill="#333" stroke="transparent">Mobile</text>
		<rect x="85" y="60" width="70" height="120" fill="#ccc" rx="10" ry="10"/>
		<rect x="95" y="70" width="50" height="80" fill="#eee" rx="5" ry="5"/>
		<rect x="110" y="160" width="20" height="10" rx="5" ry="5" fill="#eee"/>
	</symbol>
	<symbol id="server" width="240" height="240" stroke="#333" stroke-width="4" stroke-linejoin="round" stroke-linecap="round">
		<use href="#entity" x="0" y="0"/>
		<text x="120" y="210" text-anchor="middle" dominant-baseline="middle" fill="#333" stroke="transparent">Server</text>
		<rect x="40" y="60" width="160" height="30" fill="#ccc" rx="10" ry="10"/>
		<rect x="40" y="105" width="160" height="30" fill="#ccc" rx="10" ry="10"/>
		<rect x="40" y="150" width="160" height="30" fill="#ccc" rx="10" ry="10"/>
		<rect x="170" y="70" width="20" height="10" rx="5" ry="5" fill="#eee"/>
		<rect x="170" y="115" width="20" height="10" rx="5" ry="5" fill="#eee"/>
		<rect x="170" y="160" width="20" height="10" rx="5" ry="5" fill="#eee"/>
		<path d="
			M50,80
			Z
			M60,80
			Z
			M70,80
			Z
		" fill="transparent"/>
		<path d="
			M50,125
			Z
			M60,125
			Z
			M70,125
			Z
		" fill="transparent"/>
		<path d="
			M50,170
			Z
			M60,170
			Z
			M70,170
			Z
		" fill="transparent"/>
	</symbol>
	<symbol id="internet" width="240" height="240" stroke="#333" stroke-width="4" stroke-linejoin="round" stroke-linecap="round">
		<use href="#entity" x="0" y="0"/>
		<text x="120" y="210" text-anchor="middle" dominant-baseline="middle" fill="#333" stroke="transparent">Internet</text>
		<path d="
			M70,170
			A40,40,0,0,1,90,90
			A40,40,0,0,1,170,110
			A20,20,0,0,1,170,170
			Z
		" fill="#eee"/>
	</symbol>
	<symbol id="web" width="1440" height="600" stroke="#333" stroke-width="4" stroke-linejoin="round" stroke-linecap="round">
		<path d="
			M600,260
			L320,260
			L240,180
			M600,340
			L320,340
			L240,420
			M640,200
			L560,120
			L480,120
			M640,400
			L560,480
			L480,480
			M840,260
			L1120,260
			L1200,180
			M840,340
			L1120,340
			L1200,420
		" fill="transparent"/>
	</symbol>
	<use href="#web" x="0" y="0"/>
	<use href="#desktop" x="0" y="60"/>
	<use href="#desktop" x="0" y="300"/>
	<use href="#mobile" x="240" y="0"/>
	<use href="#mobile" x="240" y="360"/>
	<use href="#server" x="1200" y="60"/>
	<use href="#server" x="1200" y="300"/>
	<use href="#internet" x="600" y="180"/>
</svg>
